<svg width="160" height="73" viewBox="0 0 160 73" fill="none" xmlns="http://www.w3.org/2000/svg">
<g clip-path="url(#clip0_3315_3526)">
<rect x="11.375" y="33.3818" width="4.18286" height="6.68185" fill="#7D7F82"/>
<path fill-rule="evenodd" clip-rule="evenodd" d="M69.5885 60.9445C63.8086 66.137 56.1603 69.2969 47.7728 69.2969C29.7538 69.2969 15.1465 54.713 15.1465 36.7229C15.1465 18.7328 29.7538 4.14893 47.7728 4.14893C56.1601 4.14893 63.8083 7.30874 69.5881 12.5011H139.178C142.618 12.5011 145.639 14.4544 146.73 17.4236C148.576 22.1898 150.254 28.7531 150.254 36.6446C150.254 44.6144 148.492 51.1777 146.73 56.022C145.555 58.9911 142.534 60.9445 139.178 60.9445H69.5885Z" fill="#B3B5B8"/>
<path d="M47.3512 56.7688C58.4398 56.7688 67.4289 47.7941 67.4289 36.7233C67.4289 25.6524 58.4398 16.6777 47.3512 16.6777C36.2625 16.6777 27.2734 25.6524 27.2734 36.7233C27.2734 47.7941 36.2625 56.7688 47.3512 56.7688Z" fill="#2C2A29"/>
<path fill-rule="evenodd" clip-rule="evenodd" d="M41.1357 32.8569C41.2531 33.3052 41.7112 33.5366 42.1765 33.3846C45.9916 32.2301 49.8158 31.4402 53.7621 30.8656C54.2143 30.8061 54.4618 30.3463 54.2955 29.885C53.9452 28.9133 53.7681 28.4286 53.4098 27.4621C53.2578 27.0519 52.8466 26.7827 52.4259 26.8276C48.5694 27.2952 44.8437 27.9856 41.1096 29.0491C40.6233 29.1992 40.3249 29.7346 40.4475 30.2096C40.7202 31.2669 40.8578 31.7963 41.1357 32.8569" fill="white"/>
<path fill-rule="evenodd" clip-rule="evenodd" d="M56.4147 33.4237C56.2675 32.9881 55.8685 32.6971 55.4738 32.7486C49.4778 33.5069 43.6393 34.978 38.1026 37.4094C37.6987 37.5988 37.4565 38.1032 37.5413 38.5472C37.7582 39.6836 37.8677 40.2522 38.0892 41.3908C38.184 41.8777 38.6421 42.1018 39.094 41.8828C44.7176 39.3268 50.6608 37.6993 56.7575 36.7289C57.145 36.666 57.3425 36.2253 57.1943 35.7711C56.887 34.8299 56.731 34.3603 56.4147 33.4237" fill="white"/>
<path fill-rule="evenodd" clip-rule="evenodd" d="M56.4563 39.7783C56.3084 39.3104 55.876 39.0049 55.4654 39.0899C51.7401 39.9015 48.0987 40.8798 44.4915 42.1248C44.034 42.2934 43.7763 42.7781 43.8967 43.2241C44.1833 44.2863 44.3276 44.8183 44.6181 45.8841C44.7544 46.3846 45.3137 46.6407 45.829 46.4435C49.4351 45.1467 53.0773 44.0142 56.799 43.1063C57.156 43.019 57.3317 42.5985 57.1989 42.1648C56.906 41.2082 56.7574 40.7309 56.4563 39.7783" fill="white"/>
<mask id="path-7-inside-1_3315_3526" fill="white">
<path d="M13.0486 36.3057C13.0486 39.7653 10.2395 42.5699 6.77429 42.5699C3.30909 42.5699 0.5 39.7653 0.5 36.3057C0.5 32.846 3.30909 30.0414 6.77429 30.0414C10.2395 30.0414 13.0486 32.846 13.0486 36.3057ZM4.1346 36.3057C4.1346 37.7612 5.31643 38.9411 6.77429 38.9411C8.23215 38.9411 9.41398 37.7612 9.41398 36.3057C9.41398 34.8501 8.23215 33.6702 6.77429 33.6702C5.31643 33.6702 4.1346 34.8501 4.1346 36.3057Z"/>
</mask>
<path d="M13.0486 36.3057C13.0486 39.7653 10.2395 42.5699 6.77429 42.5699C3.30909 42.5699 0.5 39.7653 0.5 36.3057C0.5 32.846 3.30909 30.0414 6.77429 30.0414C10.2395 30.0414 13.0486 32.846 13.0486 36.3057ZM4.1346 36.3057C4.1346 37.7612 5.31643 38.9411 6.77429 38.9411C8.23215 38.9411 9.41398 37.7612 9.41398 36.3057C9.41398 34.8501 8.23215 33.6702 6.77429 33.6702C5.31643 33.6702 4.1346 34.8501 4.1346 36.3057Z" stroke="#B3B5B8" stroke-width="12" mask="url(#path-7-inside-1_3315_3526)"/>
<path d="M77.4649 31.5356C77.4649 29.3264 79.2558 27.5356 81.4649 27.5356H134.499C135.858 27.5356 137.13 28.2269 137.679 29.4702C138.445 31.2026 139.371 33.9561 139.371 37.1407C139.371 40.3254 138.445 43.0789 137.679 44.8113C137.13 46.0546 135.858 46.7459 134.499 46.7459H81.4649C79.2558 46.7459 77.4649 44.955 77.4649 42.7459V31.5356Z" fill="white"/>
<mask id="mask0_3315_3526" style="mask-type:alpha" maskUnits="userSpaceOnUse" x="77" y="27" width="63" height="20">
<path d="M77.4669 31.5351C77.4669 29.3259 79.2578 27.5351 81.4669 27.5351H134.501C135.86 27.5351 137.132 28.2263 137.681 29.4697C138.447 31.2021 139.373 33.9556 139.373 37.1402C139.373 40.3248 138.447 43.0784 137.681 44.8107C137.132 46.0541 135.86 46.7454 134.501 46.7454H81.4669C79.2578 46.7454 77.4669 44.9545 77.4669 42.7454V31.5351Z" fill="white"/>
</mask>
<g mask="url(#mask0_3315_3526)">
<path d="M134.772 29.2058C137.7 29.2058 138.955 33.3819 139.373 35.47L138.955 25.8649H77.4669V29.2058H134.772Z" fill="#D9DADD"/>
</g>
<path d="M90.2323 40.488C90.307 40.7587 90.3443 41.0107 90.3443 41.244C90.3443 41.4773 90.307 41.7293 90.2323 42H84.6183C84.553 41.7667 84.5203 41.5147 84.5203 41.244C84.5203 40.9733 84.553 40.7213 84.6183 40.488H86.5503V35.098C86.177 35.2193 85.8083 35.3313 85.4443 35.434C85.0803 35.5367 84.8516 35.5927 84.7583 35.602C84.609 35.434 84.4876 35.238 84.3943 35.014C84.3103 34.79 84.273 34.552 84.2823 34.3C85.2436 33.7213 86.359 33.1847 87.6283 32.69C87.7216 32.6993 87.8616 32.7787 88.0483 32.928C88.235 33.068 88.3423 33.1707 88.3703 33.236V40.488H90.2323Z" fill="#2C2A29"/>
<path d="M97.9295 40.488C98.0042 40.7587 98.0415 41.0107 98.0415 41.244C98.0415 41.4773 98.0042 41.7293 97.9295 42H92.3155C92.2502 41.7667 92.2175 41.5147 92.2175 41.244C92.2175 40.9733 92.2502 40.7213 92.3155 40.488H94.2476V35.098C93.8742 35.2193 93.5055 35.3313 93.1415 35.434C92.7775 35.5367 92.5489 35.5927 92.4555 35.602C92.3062 35.434 92.1849 35.238 92.0915 35.014C92.0075 34.79 91.9702 34.552 91.9795 34.3C92.9409 33.7213 94.0562 33.1847 95.3255 32.69C95.4189 32.6993 95.5589 32.7787 95.7455 32.928C95.9322 33.068 96.0395 33.1707 96.0675 33.236V40.488H97.9295Z" fill="#2C2A29"/>
<path d="M105.627 40.488C105.701 40.7587 105.739 41.0107 105.739 41.244C105.739 41.4773 105.701 41.7293 105.627 42H100.013C99.9475 41.7667 99.9148 41.5147 99.9148 41.244C99.9148 40.9733 99.9475 40.7213 100.013 40.488H101.945V35.098C101.571 35.2193 101.203 35.3313 100.839 35.434C100.475 35.5367 100.246 35.5927 100.153 35.602C100.003 35.434 99.8821 35.238 99.7888 35.014C99.7048 34.79 99.6675 34.552 99.6768 34.3C100.638 33.7213 101.753 33.1847 103.023 32.69C103.116 32.6993 103.256 32.7787 103.443 32.928C103.629 33.068 103.737 33.1707 103.765 33.236V40.488H105.627Z" fill="#2C2A29"/>
<path d="M116.127 40.488C116.201 40.7587 116.239 41.0107 116.239 41.244C116.239 41.4773 116.201 41.7293 116.127 42H110.513C110.447 41.7667 110.415 41.5147 110.415 41.244C110.415 40.9733 110.447 40.7213 110.513 40.488H112.445V35.098C112.071 35.2193 111.703 35.3313 111.339 35.434C110.975 35.5367 110.746 35.5927 110.653 35.602C110.503 35.434 110.382 35.238 110.289 35.014C110.205 34.79 110.167 34.552 110.177 34.3C111.138 33.7213 112.253 33.1847 113.523 32.69C113.616 32.6993 113.756 32.7787 113.943 32.928C114.129 33.068 114.237 33.1707 114.265 33.236V40.488H116.127Z" fill="#2C2A29"/>
<path d="M123.824 40.488C123.899 40.7587 123.936 41.0107 123.936 41.244C123.936 41.4773 123.899 41.7293 123.824 42H118.21C118.145 41.7667 118.112 41.5147 118.112 41.244C118.112 40.9733 118.145 40.7213 118.21 40.488H120.142V35.098C119.769 35.2193 119.4 35.3313 119.036 35.434C118.672 35.5367 118.443 35.5927 118.35 35.602C118.201 35.434 118.079 35.238 117.986 35.014C117.902 34.79 117.865 34.552 117.874 34.3C118.835 33.7213 119.951 33.1847 121.22 32.69C121.313 32.6993 121.453 32.7787 121.64 32.928C121.827 33.068 121.934 33.1707 121.962 33.236V40.488H123.824Z" fill="#2C2A29"/>
<path d="M131.521 40.488C131.596 40.7587 131.633 41.0107 131.633 41.244C131.633 41.4773 131.596 41.7293 131.521 42H125.907C125.842 41.7667 125.809 41.5147 125.809 41.244C125.809 40.9733 125.842 40.7213 125.907 40.488H127.839V35.098C127.466 35.2193 127.097 35.3313 126.733 35.434C126.369 35.5367 126.141 35.5927 126.047 35.602C125.898 35.434 125.777 35.238 125.683 35.014C125.599 34.79 125.562 34.552 125.571 34.3C126.533 33.7213 127.648 33.1847 128.917 32.69C129.011 32.6993 129.151 32.7787 129.337 32.928C129.524 33.068 129.631 33.1707 129.659 33.236V40.488H131.521Z" fill="#2C2A29"/>
</g>
<defs>
<clipPath id="clip0_3315_3526">
<rect width="159" height="73" fill="white" transform="translate(0.5)"/>
</clipPath>
</defs>
</svg>
